<svg width="540" height="600" viewBox="0 0 540 600" xmlns="http://www.w3.org/2000/svg">
  <defs>
    <style>
      .cls-1 {
        stroke-width: 1px;
        stroke-miterlimit: 10;
      }
      .cls-1, .cls-2, .cls-3 {
        fill: none;
        stroke: #181926;
      }
      .cls-4 {
        fill: #fffbf2;
      }
      .cls-2 {
        stroke-width: 1px;
        stroke-miterlimit: 10;
      }
      .cls-3 {
        stroke-width: 1px;
        stroke-linejoin: bevel;
      }
    </style>
  </defs>
  
  <!-- Board Background -->
  <rect width="540" height="600" class="cls-4" />
  
  <!-- Grid lines -->
  <g class="cls-2">
    <!-- Horizontal lines -->
    <line x1="30" y1="30" x2="510" y2="30" />
    <line x1="30" y1="90" x2="510" y2="90" />
    <line x1="30" y1="150" x2="510" y2="150" />
    <line x1="30" y1="210" x2="510" y2="210" />
    <line x1="30" y1="270" x2="510" y2="270" />
    <line x1="30" y1="330" x2="510" y2="330" />
    <line x1="30" y1="390" x2="510" y2="390" />
    <line x1="30" y1="450" x2="510" y2="450" />
    <line x1="30" y1="510" x2="510" y2="510" />
    <line x1="30" y1="570" x2="510" y2="570" />
    
    <!-- Vertical lines -->
    <line x1="30" y1="30" x2="30" y2="570" />
    <line x1="90" y1="30" x2="90" y2="270" />
    <line x1="150" y1="30" x2="150" y2="270" />
    <line x1="210" y1="30" x2="210" y2="270" />
    <line x1="270" y1="30" x2="270" y2="270" />
    <line x1="330" y1="30" x2="330" y2="270" />
    <line x1="390" y1="30" x2="390" y2="270" />
    <line x1="450" y1="30" x2="450" y2="270" />
    <line x1="510" y1="30" x2="510" y2="570" />
    <line x1="90" y1="330" x2="90" y2="570" />
    <line x1="150" y1="330" x2="150" y2="570" />
    <line x1="210" y1="330" x2="210" y2="570" />
    <line x1="270" y1="330" x2="270" y2="570" />
    <line x1="330" y1="330" x2="330" y2="570" />
    <line x1="390" y1="330" x2="390" y2="570" />
    <line x1="450" y1="330" x2="450" y2="570" />
  </g>
  
  <!-- Palaces -->
  <g class="cls-3">
    <!-- Top Palace -->
    <line x1="210" y1="30" x2="330" y2="150" />
    <line x1="330" y1="30" x2="210" y2="150" />
    <!-- Bottom Palace -->
    <line x1="210" y1="450" x2="330" y2="570" />
    <line x1="330" y1="450" x2="210" y2="570" />
  </g>
</svg>