<svg
   xmlns:dc="http://purl.org/dc/elements/1.1/"
   xmlns:cc="http://creativecommons.org/ns#"
   xmlns:rdf="http://www.w3.org/1999/02/22-rdf-syntax-ns#"
   xmlns:svg="http://www.w3.org/2000/svg"
   xmlns="http://www.w3.org/2000/svg"
   xmlns:sodipodi="http://sodipodi.sourceforge.net/DTD/sodipodi-0.dtd"
   xmlns:inkscape="http://www.inkscape.org/namespaces/inkscape"
   version="1.1"
   id="Ebene_1"
   x="0px"
   y="0px"
   viewBox="0 0 151.06153 151.06154"
   enable-background="new 0 0 590 595"
   xml:space="preserve"
   width="4.2632923cm"
   height="4.2632923cm"
   style="fill:#24273a">
   
   <g id="black_elephant" transform="translate(-154.01157,-151.57136)">
     <circle
       r="73.805771"
       cy="227.10213"
       cx="229.54231"
       id="circle4366"
       style="fill:#24273a;stroke:#ffffff;stroke-width:4" />

     <g id="g3484" style="fill:#24273a">
       <path
         style="fill:#24273a;stroke:#ffffff;stroke-width:4"
         id="path25"
         d="m 255.52716,267.75213 c -11.4,-3.2 -20.1,-20.6 -21.7,-25.9 -0.4,-1.2 -0.6,-1.4 -0.7,-2.3 -3.9,-2.1 -7,0.8 -8.5,2.3 -0.3,0.3 -1.7,2.8 -1.6,2.7 1.7,3.7 5.6,13.3 13.1,19.8 6.2,5.4 14.1,7.7 18.3,7.7 2,0 3.6,-0.2 3.6,-0.2 l 8.4,-2.2 c 0,0 -7,-0.9 -10.9,-1.9 z" />

       <path
         style="fill:#24273a;stroke:#ffffff;stroke-width:4"
         id="path19"
         d="m 280.12716,230.85213 c -3.2,-7.2 -9,-16.9 -9,-16.9 l -5.6,12.1 c 0.4,0.8 1.3,2.5 2.9,5.6 7.1,13.7 -0.2,19.5 -3.8,19.5 -8.7,0 -10.2,-11.6 -10.6,-12.7 -0.1,-0.8 -0.6,-4.3 -1.1,-8.7 0,0 -1.2,-7.9 -1.2,-13.1 0,-7.1 -2,-15.3 -2,-15.7 l -0.1,-0.3 c -6.3,-14.9 -16.1,-18 -23.2,-18 -9.6,0 -18.2,5.6 -20.8,8.4 l -0.1,0.1 c -0.9,-0.4 -2.2,-0.8 -3.4,-0.8 -7.3,0 -13.1,2.4 -17.5,7 -8.5,9 -8,23.2 -8,23.7 l 0,31 45.9,17.1 0,-20.2 0,-1.1 0,0 c 0,0 -0.3,-3.6 1.1,-5.7 0.1,-0.1 0.1,-0.2 0.1,-0.2 l 0,0 c 0.1,-0.2 0.3,-0.4 0.5,-0.5 1.9,-1.7 10.1,-5 14.1,-1.4 l 0,0 0,0 c 0.4,0.4 0.81881,0.7396 1,1.2 -0.52253,-0.96998 0,0.055 0,0.1 0,0 1.5,3.7 2.6,5.6 2.9,5.5 4.2,8.2 7.3,11.2 3.2,3 8.7,5.3 14.9,5.3 6,0 12.1,-4.4 15.4,-10.4 3.5,-6.3 4.1,-14.2 0.6,-22.2 z" />

       <circle
         cx="237.82716"
         cy="217.65213"
         r="3.8"
         id="circle31"
         style="fill:#24273a;stroke:#ffffff;stroke-width:4" />

       <path
         d="m 255.40043,267.75213 c -11.4,-3.2 -20.1,-20.6 -21.7,-25.9 -1.98988,-5.54377 -0.751,-8.56862 -3.73861,-6.37514 -2.05625,1.50968 -7.27616,0.26022 -8.75625,4.72771 -0.12881,0.40424 -0.0526,0.89912 1.69486,4.34743 1.7,3.7 5.6,13.3 13.1,19.8 6.2,5.4 14.1,7.7 18.3,7.7 2,0 3.6,-0.2 3.6,-0.2 l 8.4,-2.2 c 0,0 -7,-0.9 -10.9,-1.9 z"
         id="path4551"
         style="fill:#24273a;stroke:#ffffff;stroke-width:4" />
     </g>
   </g>
</svg>