<?xml version="1.0" encoding="UTF-8" standalone="no"?>
<svg xmlns:dc="http://purl.org/dc/elements/1.1/"
  xmlns:cc="http://creativecommons.org/ns#"
  xmlns:rdf="http://www.w3.org/1999/02/22-rdf-syntax-ns#"
  xmlns:svg="http://www.w3.org/2000/svg"
  xmlns="http://www.w3.org/2000/svg"
  xmlns:sodipodi="http://sodipodi.sourceforge.net/DTD/sodipodi-0.dtd"
  xmlns:inkscape="http://www.inkscape.org/namespaces/inkscape" version="1.1" id="Ebene_1" x="0px" y="0px" viewBox="0 0 151.06153 151.06154" enable-background="new 0 0 590 595" xml:space="preserve" inkscape:version="0.91 r13725" sodipodi:docname="red_elephant.svg" width="4.2632923cm" height="4.2632923cm">
  <g id="red_elephant" transform="translate(-14.218329,-151.57136)">
    <circle style="color:#000000;display:inline;overflow:visible;visibility:visible;opacity:1;fill:#9b111e;fill-opacity:1;fill-rule:nonzero;stroke:#ffffff;stroke-width:4;stroke-linecap:round;stroke-linejoin:miter;stroke-miterlimit:10;stroke-dasharray:none;stroke-dashoffset:0;stroke-opacity:1;marker:none;enable-background:accumulate" id="circle4374" cx="89.749069" cy="227.10213" r="73.805771" />
    <g transform="translate(176.19837,-2.3590429)" id="g4525">
      <path stroke-miterlimit="10" d="m -60.464451,270.11117 c -11.4,-3.2 -20.1,-20.6 -21.7,-25.9 -0.4,-1.2 -0.6,-1.4 -0.7,-2.3 -3.9,-2.1 -7,0.8 -8.5,2.3 -0.3,0.3 -1.7,2.8 -1.6,2.7 1.7,3.7 5.6,13.3 13.1,19.8 6.2,5.4 14.1,7.7 18.3,7.7 2,0 3.6,-0.2 3.6,-0.2 l 8.4,-2.2 c 0,0 -7,-0.9 -10.9,-1.9 z" id="path4491" style="fill:#9b111e;fill-opacity:1;stroke:#ffffff;stroke-width:4;stroke-miterlimit:10;stroke-opacity:1" />
      <path sodipodi:nodetypes="ccccsccsccsccscscccccccccccccccccscc" stroke-miterlimit="10" d="m -35.864451,233.21117 c -3.2,-7.2 -9,-16.9 -9,-16.9 l -5.6,12.1 c 0.4,0.8 1.3,2.5 2.9,5.6 7.1,13.7 -0.2,19.5 -3.8,19.5 -8.7,0 -10.2,-11.6 -10.6,-12.7 -0.1,-0.8 -0.6,-4.3 -1.1,-8.7 0,0 -1.2,-7.9 -1.2,-13.1 0,-7.1 -2,-15.3 -2,-15.7 l -0.1,-0.3 c -6.3,-14.9 -16.1,-18 -23.2,-18 -9.6,0 -18.199999,5.6 -20.799999,8.4 l -0.1,0.1 c -0.9,-0.4 -2.2,-0.8 -3.4,-0.8 -7.3,0 -13.1,2.4 -17.5,7 -8.5,9 -8,23.2 -8,23.7 l 0,31 45.899999,17.1 0,-20.2 0,-1.1 0,0 c 0,0 -0.3,-3.6 1.1,-5.7 0.1,-0.1 0.1,-0.2 0.1,-0.2 l 0,0 c 0.1,-0.2 0.3,-0.4 0.5,-0.5 1.9,-1.7 10.1,-5 14.1,-1.4 l 0,0 0,0 c 0.4,0.4 0.81881,0.7396 1,1.2 l -0.1,0 0.1,0.1 c 0,0 1.5,3.7 2.6,5.6 2.9,5.5 4.2,8.2 7.3,11.2 3.2,3 8.7,5.3 14.9,5.3 6,0 12.1,-4.4 15.4,-10.4 3.5,-6.3 4.1,-14.2 0.6,-22.2 z" id="path4493" style="fill:#9b111e;fill-opacity:1;stroke:#ffffff;stroke-width:4;stroke-miterlimit:10;stroke-dasharray:none;stroke-opacity:1" />
      <circle style="fill:#9b111e;fill-opacity:1;stroke:#ffffff;stroke-width:4;stroke-miterlimit:10;stroke-dasharray:none;stroke-opacity:1" id="circle4495" r="3.8" cy="220.01117" cx="-78.164444" stroke-miterlimit="10" />
    </g>
  </g>
</svg>