<svg xmlns:dc="http://purl.org/dc/elements/1.1/"
  xmlns:cc="http://creativecommons.org/ns#"
  xmlns:rdf="http://www.w3.org/1999/02/22-rdf-syntax-ns#"
  xmlns:svg="http://www.w3.org/2000/svg"
  xmlns="http://www.w3.org/2000/svg"
  xmlns:sodipodi="http://sodipodi.sourceforge.net/DTD/sodipodi-0.dtd"
  xmlns:inkscape="http://www.inkscape.org/namespaces/inkscape" version="1.1" id="Ebene_1" x="0px" y="0px" viewBox="0 0 151.06153 151.06154" enable-background="new 0 0 590 595" xml:space="preserve" width="4.2632923cm" height="4.2632923cm">
  <g id="red_cannon" transform="translate(-293.80474,-7.5544189)">
    <circle r="73.805771" cy="83.08519" cx="369.33548" id="circle4384" style="color:#000000;display:inline;overflow:visible;visibility:visible;opacity:1;fill:#9b111e;fill-opacity:1;fill-rule:nonzero;stroke:#ffffff;stroke-width:4;stroke-linecap:round;stroke-linejoin:miter;stroke-miterlimit:10;stroke-dasharray:none;stroke-dashoffset:0;stroke-opacity:1;marker:none;enable-background:accumulate" />
    <g transform="translate(13.776133,-38.85179)" id="g45">
      <path style="fill:#9b111e;stroke:#ffffff;stroke-width:4;stroke-miterlimit:10" id="path47" d="m 406.2606,90.309103 -97.4,4.6 c 0,0 -9.6,7.499997 -7.1,24.999997 0,0.1 0,0.2 0,0.4 0,0.1 0,0.2 0,0.4 2.3,17.5 13.6,22.2 13.6,22.2 l 94.8,-24.3 -1.4,-14.1 -2.5,-14.199997 z" />
      <path style="fill:#9b111e;stroke:#ffffff;stroke-width:4;stroke-miterlimit:10" id="path49" d="m 363.3606,147.2091 c -7.1,-0.1 -8,-8.7 -8,-14.4 0,0 2.6,-15.9 -10.2,-17 l 0,-1.7 c 0,0 0,1.7 -0.1,1.7 -0.6,0 -1.1,-1.8 -1.7,-1.8 l 0,1.8 c -12.7,1.1 -10.2,17 -10.2,17 -0.1,5.7 -0.7,14.3 -8,14.4 l -17.2,0 0,10.3 72.5,-0.1 0,-10.2 -17.1,0 z" />
      <circle style="fill:#9b111e;stroke:#ffffff;stroke-width:4;stroke-miterlimit:10" id="circle51" r="3.7" cy="126.8091" cx="344.16058" />
      <circle style="fill:#9b111e;stroke:#ffffff;stroke-width:4;stroke-miterlimit:10" id="circle53" r="3.7" cy="120.5091" cx="300.16058" />
    </g>
  </g>
</svg>