<svg
   xmlns:dc="http://purl.org/dc/elements/1.1/"
   xmlns:cc="http://creativecommons.org/ns#"
   xmlns:rdf="http://www.w3.org/1999/02/22-rdf-syntax-ns#"
   xmlns:svg="http://www.w3.org/2000/svg"
   xmlns="http://www.w3.org/2000/svg"
   xmlns:sodipodi="http://sodipodi.sourceforge.net/DTD/sodipodi-0.dtd"
   xmlns:inkscape="http://www.inkscape.org/namespaces/inkscape"
   version="1.1"
   id="Ebene_1"
   x="0px"
   y="0px"
   viewBox="0 0 151.06153 151.06154"
   enable-background="new 0 0 590 595"
   xml:space="preserve"
   width="4.2632923cm"
   height="4.2632923cm">
   <g id="red_advisor" transform="translate(9.8518082,-278.18206)">
      <circle
         r="73.805771"
         cy="353.71283"
         cx="65.678932"
         id="circle4376"
         style="color:#000000;display:inline;overflow:visible;visibility:visible;opacity:1;fill:#9b111e;fill-opacity:1;fill-rule:nonzero;stroke:#ffffff;stroke-width:4;stroke-linecap:round;stroke-linejoin:miter;stroke-miterlimit:10;stroke-dasharray:none;stroke-dashoffset:0;stroke-opacity:1;marker:none;enable-background:accumulate" />
      <g transform="translate(-24.563339,5.2473634)" id="g65">
         <path
            style="fill:#9b111e;stroke:#ffffff;stroke-width:4;stroke-miterlimit:10"
            id="path67"
            d="m 123.6,302.3 c -11.9,3.3 -22.5,4.9 -34.1,4.9 -11.25335,-0.10988 -23.450962,-2.17116 -32.6,-4.7 -2.4,20.3 -4.4,40.4 -4.1,60.6 0,0 7.7,21 37.1,39.9 0,0 0.1,0.2 0.2,0.1 0.2,0.1 0.5,-0.3 0.5,-0.3 29.4,-19 37.1,-39.9 37.1,-39.9 0.2,-20.2 -1.7,-40.3 -4.1,-60.6 z" />
         <g id="g69">
            <line
               style="fill:none;stroke:#ffffff;stroke-width:4;stroke-miterlimit:10"
               id="line71"
               y2="364"
               x2="108.3"
               y1="327.70001"
               x1="72.099998" />
            <line
               style="fill:none;stroke:#ffffff;stroke-width:4;stroke-miterlimit:10"
               id="line73"
               y2="364"
               x2="72.099998"
               y1="327.70001"
               x1="108.3" />
         </g>
      </g>
   </g>
</svg>